<svg width="1440" height="176" viewBox="0 0 1440 176" fill="none" xmlns="http://www.w3.org/2000/svg">
<rect width="1440" height="176" fill="#0F3F3C"/>
<path d="M265.916 56.0201C265.916 56.0201 265.561 49.4109 266.997 49.0804C268.433 48.75 270.91 51.1213 270.91 51.1213L265.916 56.0201Z" fill="black"/>
<path d="M279.482 51.2818C279.482 51.2818 282.133 48.6416 284.012 49.0814C285.89 49.5213 284.455 54.74 284.455 54.74L279.482 51.2818Z" fill="black"/>
<path d="M284.668 68.1065C282.678 69.6789 281.347 70.1931 279.085 70.8052C277.575 71.2136 273.773 71.1932 270.229 69.767C267.747 68.6811 266.774 67.5003 266.306 66.8568C265.898 66.2971 265.068 65.0551 265.021 63.6965C264.952 61.7186 265.01 59.7892 265.918 56.0227C266.825 52.255 270.912 51.1239 270.912 51.1239C275.377 50.0697 279.084 50.8982 280.371 51.1239C281.657 51.3497 285.312 53.6641 285.627 58.3021C285.675 58.9956 286.452 61.4627 286.527 63.5348C286.549 64.1703 286.568 65.0164 286.251 65.8843C285.886 66.8853 285.072 67.769 284.668 68.1065Z" fill="#F07F2E" stroke="black" stroke-width="0.4" stroke-miterlimit="10"/>
<path d="M272.362 58.7475C272.393 58.6881 272.429 58.6311 272.468 58.5753C272.487 58.5485 272.505 58.5217 272.524 58.495C272.535 58.481 272.546 58.4659 272.557 58.4519C272.582 58.4158 272.499 58.5206 272.552 58.4577C272.606 58.3926 272.661 58.3297 272.721 58.2704C272.753 58.239 272.786 58.2087 272.82 58.1796C272.831 58.1692 272.891 58.1215 272.844 58.1575C272.797 58.1936 272.865 58.1436 272.88 58.1331C272.918 58.1075 272.958 58.0831 272.998 58.0621C273.018 58.0516 273.039 58.0423 273.06 58.0319C273.101 58.0109 272.987 58.0551 273.067 58.0307C273.112 58.0167 273.156 58.0063 273.201 57.9958C273.26 57.9807 273.125 57.9981 273.187 57.9981C273.213 57.9981 273.24 57.9946 273.268 57.9958C273.293 57.9958 273.317 58.0004 273.341 58.0004C273.385 58.0004 273.27 57.9807 273.312 57.997C273.321 58.0005 273.334 58.0004 273.344 58.0039C273.37 58.0109 273.396 58.0167 273.42 58.0249C273.431 58.0284 273.442 58.033 273.453 58.0365C273.522 58.0563 273.413 58.0109 273.447 58.0342C273.504 58.0726 273.571 58.1017 273.629 58.1401C273.641 58.1482 273.653 58.1564 273.664 58.1657C273.608 58.1226 273.664 58.1668 273.675 58.1773C273.707 58.2064 273.739 58.2343 273.77 58.2646C273.926 58.4205 274.022 58.5566 274.141 58.7486C274.241 58.9081 274.454 58.9709 274.62 58.8743C274.78 58.7812 274.846 58.5578 274.747 58.3972C274.371 57.7957 273.802 57.1871 273.024 57.3232C272.557 57.4047 272.191 57.7724 271.923 58.1389C271.863 58.2215 271.804 58.3076 271.756 58.3972C271.667 58.5636 271.714 58.7766 271.883 58.8743C272.04 58.9639 272.273 58.9139 272.362 58.7475Z" fill="black"/>
<path d="M282.601 58.2484C282.631 58.1914 282.666 58.1367 282.702 58.0832C282.72 58.0576 282.737 58.032 282.756 58.0064C282.767 57.9924 282.777 57.9785 282.787 57.9645C282.812 57.9296 282.728 58.0355 282.781 57.9738C282.832 57.9121 282.885 57.8516 282.943 57.7946C282.974 57.7643 283.005 57.7353 283.038 57.7085C283.049 57.698 283.108 57.6515 283.06 57.6887C283.012 57.726 283.077 57.6759 283.093 57.6666C283.129 57.6422 283.166 57.6189 283.205 57.598C283.225 57.5875 283.245 57.5782 283.263 57.5689C283.304 57.5479 283.186 57.5933 283.267 57.5689C283.309 57.5561 283.352 57.5456 283.395 57.5351C283.454 57.5212 283.317 57.5386 283.378 57.5374C283.404 57.5374 283.429 57.534 283.456 57.5351C283.479 57.5351 283.503 57.5398 283.526 57.5398C283.571 57.5398 283.453 57.52 283.493 57.5363C283.503 57.5398 283.515 57.5398 283.524 57.5421C283.548 57.5491 283.573 57.5549 283.596 57.5619C283.607 57.5654 283.617 57.57 283.628 57.5724C283.696 57.5921 283.586 57.5456 283.619 57.5677C283.673 57.6049 283.737 57.6317 283.793 57.6701C283.804 57.6782 283.815 57.6864 283.825 57.6945C283.766 57.6491 283.821 57.6922 283.832 57.7027C283.863 57.7306 283.894 57.7574 283.923 57.7865C284.077 57.9389 284.158 58.0576 284.278 58.2472C284.377 58.4066 284.591 58.4695 284.757 58.3729C284.917 58.2798 284.982 58.0564 284.883 57.8958C284.519 57.314 283.969 56.7288 283.217 56.8602C282.764 56.9394 282.413 57.2943 282.153 57.648C282.095 57.7271 282.04 57.8097 281.993 57.8958C281.904 58.0622 281.951 58.2752 282.119 58.3729C282.279 58.466 282.512 58.416 282.601 58.2484Z" fill="black"/>
<path d="M274.622 61.7718L270.996 61.6554" stroke="black" stroke-width="0.4" stroke-miterlimit="10"/>
<path d="M274.682 63.0161L271.534 63.4816" stroke="black" stroke-width="0.4" stroke-miterlimit="10"/>
<path d="M284.174 61.2345L287.8 61.1182" stroke="black" stroke-width="0.4" stroke-miterlimit="10"/>
<path d="M284.115 62.4751L287.263 62.9394" stroke="black" stroke-width="0.4" stroke-miterlimit="10"/>
<path d="M278.987 62.6354C278.987 62.6354 280.741 65.0534 282.225 62.5912" stroke="black" stroke-width="0.4" stroke-miterlimit="10"/>
<path d="M280.62 60.8286V63.5596" stroke="black" stroke-width="0.4" stroke-miterlimit="10"/>
<path d="M280.588 60.9516C281.323 60.9516 281.918 60.5338 281.918 60.0184C281.918 59.503 281.323 59.0852 280.588 59.0852C279.854 59.0852 279.259 59.503 279.259 60.0184C279.259 60.5338 279.854 60.9516 280.588 60.9516Z" fill="black"/>
<path d="M268.94 59.6311C270.119 58.4152 266.351 55.8634 266.073 55.754C266.061 55.7494 265.001 60.5249 265.055 63.4C265.068 64.0715 265.195 64.7705 265.195 64.7705C265.416 64.9659 265.561 65.5957 267.213 64.7917C268.137 64.3414 268.32 63.4244 267.478 63.2476C265.86 62.909 267.483 62.5483 267.218 61.9083C266.548 60.2932 267.7 60.9099 268.94 59.6311Z" fill="black" stroke="black" stroke-width="0.4" stroke-miterlimit="10"/>
<path d="M284.951 64.374C285.088 62.9439 286.43 63.3476 286.43 63.3476C286.877 65.958 285.315 67.7312 284.189 68.3518C283.915 68.3518 283.653 66.7559 284.268 66.5523C284.883 66.3486 284.815 65.8041 284.951 64.374Z" fill="black" stroke="black" stroke-width="0.4" stroke-miterlimit="10"/>
<path d="M273.552 98L269.248 92.416L270.208 91.84L274.912 98H273.552ZM265.888 98V86.8H267.04V98H265.888ZM266.688 92.864V91.824H270.192V92.864H266.688ZM270.304 92.528L269.216 92.336L273.392 86.8H274.672L270.304 92.528ZM280.322 98.08C279.511 98.08 278.781 97.8987 278.13 97.536C277.49 97.1627 276.983 96.656 276.61 96.016C276.237 95.3653 276.05 94.624 276.05 93.792C276.05 92.9493 276.237 92.208 276.61 91.568C276.983 90.928 277.49 90.4267 278.13 90.064C278.77 89.7013 279.501 89.52 280.322 89.52C281.154 89.52 281.89 89.7013 282.53 90.064C283.181 90.4267 283.687 90.928 284.05 91.568C284.423 92.208 284.61 92.9493 284.61 93.792C284.61 94.624 284.423 95.3653 284.05 96.016C283.687 96.656 283.181 97.1627 282.53 97.536C281.879 97.8987 281.143 98.08 280.322 98.08ZM280.322 97.072C280.93 97.072 281.469 96.9387 281.938 96.672C282.407 96.3947 282.775 96.0107 283.042 95.52C283.319 95.0187 283.458 94.4427 283.458 93.792C283.458 93.1307 283.319 92.5547 283.042 92.064C282.775 91.5733 282.407 91.1947 281.938 90.928C281.469 90.6507 280.935 90.512 280.338 90.512C279.741 90.512 279.207 90.6507 278.738 90.928C278.269 91.1947 277.895 91.5733 277.618 92.064C277.341 92.5547 277.202 93.1307 277.202 93.792C277.202 94.4427 277.341 95.0187 277.618 95.52C277.895 96.0107 278.269 96.3947 278.738 96.672C279.207 96.9387 279.735 97.072 280.322 97.072ZM288.825 98V90.288L289.113 90.592H285.641V89.6H293.145V90.592H289.673L289.961 90.288V98H288.825ZM295.288 98V89.6H296.424V96.272L302.04 89.6H303.048V98H301.912V91.312L296.312 98H295.288ZM312.964 98L309.508 93.84L310.452 93.28L314.308 98H312.964ZM306.804 98V89.6H307.94V98H306.804ZM307.588 94.256V93.28H310.292V94.256H307.588ZM310.548 93.92L309.492 93.76L312.836 89.6H314.068L310.548 93.92ZM316.6 98V89.6H317.736V96.272L323.352 89.6H324.36V98H323.224V91.312L317.624 98H316.6ZM331.188 94.064V93.248H347.188V94.064H331.188ZM355.591 98V90.288L355.879 90.592H352.407V89.6H359.911V90.592H356.439L356.727 90.288V98H355.591ZM365.119 98.08C364.308 98.08 363.578 97.8987 362.927 97.536C362.287 97.1627 361.78 96.656 361.407 96.016C361.034 95.3653 360.847 94.624 360.847 93.792C360.847 92.9493 361.034 92.208 361.407 91.568C361.78 90.928 362.287 90.4267 362.927 90.064C363.567 89.7013 364.298 89.52 365.119 89.52C365.951 89.52 366.687 89.7013 367.327 90.064C367.978 90.4267 368.484 90.928 368.847 91.568C369.22 92.208 369.407 92.9493 369.407 93.792C369.407 94.624 369.22 95.3653 368.847 96.016C368.484 96.656 367.978 97.1627 367.327 97.536C366.676 97.8987 365.94 98.08 365.119 98.08ZM365.119 97.072C365.727 97.072 366.266 96.9387 366.735 96.672C367.204 96.3947 367.572 96.0107 367.839 95.52C368.116 95.0187 368.255 94.4427 368.255 93.792C368.255 93.1307 368.116 92.5547 367.839 92.064C367.572 91.5733 367.204 91.1947 366.735 90.928C366.266 90.6507 365.732 90.512 365.135 90.512C364.538 90.512 364.004 90.6507 363.535 90.928C363.066 91.1947 362.692 91.5733 362.415 92.064C362.138 92.5547 361.999 93.1307 361.999 93.792C361.999 94.4427 362.138 95.0187 362.415 95.52C362.692 96.0107 363.066 96.3947 363.535 96.672C364.004 96.9387 364.532 97.072 365.119 97.072ZM382.542 97.008L382.286 97.312V89.6H383.422V97.312L383.118 97.008H387.806L387.502 97.312V89.6H388.638V98H377.022V89.6H378.158V97.312L377.87 97.008H382.542ZM388.862 99.84V97.696L389.15 98H387.438V97.008H389.934V99.84H388.862ZM397.582 98V96.144L397.534 95.84V92.736C397.534 92.0213 397.331 91.472 396.926 91.088C396.531 90.704 395.939 90.512 395.15 90.512C394.606 90.512 394.089 90.6027 393.598 90.784C393.107 90.9653 392.691 91.2053 392.35 91.504L391.838 90.656C392.265 90.2933 392.777 90.016 393.374 89.824C393.971 89.6213 394.601 89.52 395.262 89.52C396.35 89.52 397.187 89.792 397.774 90.336C398.371 90.8693 398.67 91.6853 398.67 92.784V98H397.582ZM394.686 98.08C394.057 98.08 393.507 97.9787 393.038 97.776C392.579 97.5627 392.227 97.2747 391.982 96.912C391.737 96.5387 391.614 96.112 391.614 95.632C391.614 95.1947 391.715 94.8 391.918 94.448C392.131 94.0853 392.473 93.7973 392.942 93.584C393.422 93.36 394.062 93.248 394.862 93.248H397.758V94.096H394.894C394.083 94.096 393.518 94.24 393.198 94.528C392.889 94.816 392.734 95.1733 392.734 95.6C392.734 96.08 392.921 96.464 393.294 96.752C393.667 97.04 394.19 97.184 394.862 97.184C395.502 97.184 396.051 97.04 396.51 96.752C396.979 96.4533 397.321 96.0267 397.534 95.472L397.79 96.256C397.577 96.8107 397.203 97.2533 396.67 97.584C396.147 97.9147 395.486 98.08 394.686 98.08ZM405.714 98.08C404.882 98.08 404.135 97.8987 403.474 97.536C402.823 97.1627 402.311 96.656 401.938 96.016C401.565 95.3653 401.378 94.624 401.378 93.792C401.378 92.9493 401.565 92.208 401.938 91.568C402.311 90.928 402.823 90.4267 403.474 90.064C404.135 89.7013 404.882 89.52 405.714 89.52C406.429 89.52 407.074 89.6587 407.65 89.936C408.226 90.2133 408.679 90.6293 409.01 91.184L408.162 91.76C407.874 91.3333 407.517 91.0187 407.09 90.816C406.663 90.6133 406.199 90.512 405.698 90.512C405.101 90.512 404.562 90.6507 404.082 90.928C403.602 91.1947 403.223 91.5733 402.946 92.064C402.669 92.5547 402.53 93.1307 402.53 93.792C402.53 94.4533 402.669 95.0293 402.946 95.52C403.223 96.0107 403.602 96.3947 404.082 96.672C404.562 96.9387 405.101 97.072 405.698 97.072C406.199 97.072 406.663 96.9707 407.09 96.768C407.517 96.5653 407.874 96.256 408.162 95.84L409.01 96.416C408.679 96.96 408.226 97.376 407.65 97.664C407.074 97.9413 406.429 98.08 405.714 98.08ZM413.154 98V90.288L413.442 90.592H409.97V89.6H417.474V90.592H414.002L414.29 90.288V98H413.154ZM424.868 98V94.976L425.076 95.216H422.228C421.151 95.216 420.308 94.9813 419.7 94.512C419.092 94.0427 418.788 93.36 418.788 92.464C418.788 91.504 419.113 90.7893 419.764 90.32C420.415 89.84 421.284 89.6 422.372 89.6H425.908V98H424.868ZM418.724 98L421.028 94.768H422.212L419.956 98H418.724ZM424.868 94.64V90.256L425.076 90.592H422.404C421.625 90.592 421.017 90.7413 420.58 91.04C420.153 91.3387 419.94 91.824 419.94 92.496C419.94 93.744 420.735 94.368 422.324 94.368H425.076L424.868 94.64ZM429.727 98.08C429.493 98.08 429.29 97.9947 429.119 97.824C428.959 97.6533 428.879 97.4453 428.879 97.2C428.879 96.944 428.959 96.736 429.119 96.576C429.29 96.416 429.493 96.336 429.727 96.336C429.962 96.336 430.159 96.416 430.319 96.576C430.49 96.736 430.575 96.944 430.575 97.2C430.575 97.4453 430.49 97.6533 430.319 97.824C430.159 97.9947 429.962 98.08 429.727 98.08ZM264.56 120.656L264.992 119.808C265.483 120.235 266.032 120.555 266.64 120.768C267.259 120.971 267.877 121.077 268.496 121.088C269.115 121.088 269.68 120.997 270.192 120.816C270.715 120.635 271.136 120.368 271.456 120.016C271.776 119.653 271.936 119.216 271.936 118.704C271.936 118.053 271.675 117.552 271.152 117.2C270.64 116.848 269.925 116.672 269.008 116.672H266.608V115.712H268.944C269.733 115.712 270.347 115.547 270.784 115.216C271.232 114.875 271.456 114.405 271.456 113.808C271.456 113.381 271.328 113.019 271.072 112.72C270.827 112.411 270.485 112.176 270.048 112.016C269.621 111.845 269.141 111.755 268.608 111.744C268.075 111.723 267.52 111.792 266.944 111.952C266.379 112.101 265.829 112.341 265.296 112.672L264.912 111.696C265.573 111.301 266.261 111.029 266.976 110.88C267.691 110.72 268.384 110.667 269.056 110.72C269.728 110.773 270.331 110.928 270.864 111.184C271.408 111.44 271.84 111.776 272.16 112.192C272.48 112.608 272.64 113.104 272.64 113.68C272.64 114.213 272.501 114.683 272.224 115.088C271.957 115.493 271.579 115.808 271.088 116.032C270.608 116.245 270.037 116.352 269.376 116.352L269.44 116C270.187 116 270.832 116.117 271.376 116.352C271.931 116.587 272.357 116.923 272.656 117.36C272.965 117.787 273.12 118.288 273.12 118.864C273.12 119.408 272.981 119.893 272.704 120.32C272.437 120.736 272.064 121.088 271.584 121.376C271.115 121.653 270.587 121.856 270 121.984C269.413 122.101 268.8 122.133 268.16 122.08C267.52 122.027 266.891 121.888 266.272 121.664C265.653 121.429 265.083 121.093 264.56 120.656ZM281.504 122V120.144L281.456 119.84V116.736C281.456 116.021 281.253 115.472 280.848 115.088C280.453 114.704 279.861 114.512 279.072 114.512C278.528 114.512 278.011 114.603 277.52 114.784C277.029 114.965 276.613 115.205 276.272 115.504L275.76 114.656C276.187 114.293 276.699 114.016 277.296 113.824C277.893 113.621 278.523 113.52 279.184 113.52C280.272 113.52 281.109 113.792 281.696 114.336C282.293 114.869 282.592 115.685 282.592 116.784V122H281.504ZM278.608 122.08C277.979 122.08 277.429 121.979 276.96 121.776C276.501 121.563 276.149 121.275 275.904 120.912C275.659 120.539 275.536 120.112 275.536 119.632C275.536 119.195 275.637 118.8 275.84 118.448C276.053 118.085 276.395 117.797 276.864 117.584C277.344 117.36 277.984 117.248 278.784 117.248H281.68V118.096H278.816C278.005 118.096 277.44 118.24 277.12 118.528C276.811 118.816 276.656 119.173 276.656 119.6C276.656 120.08 276.843 120.464 277.216 120.752C277.589 121.04 278.112 121.184 278.784 121.184C279.424 121.184 279.973 121.04 280.432 120.752C280.901 120.453 281.243 120.027 281.456 119.472L281.712 120.256C281.499 120.811 281.125 121.253 280.592 121.584C280.069 121.915 279.408 122.08 278.608 122.08ZM289.892 122.096C289.209 122.096 288.601 121.984 288.068 121.76C287.545 121.536 287.097 121.195 286.724 120.736C286.351 120.277 286.068 119.712 285.876 119.04C285.684 118.357 285.588 117.568 285.588 116.672C285.588 115.872 285.663 115.173 285.812 114.576C285.961 113.968 286.169 113.445 286.436 113.008C286.703 112.571 287.012 112.203 287.364 111.904C287.727 111.595 288.116 111.349 288.532 111.168C288.959 110.976 289.396 110.832 289.844 110.736L293.62 109.856L293.812 110.912L290.26 111.712C290.036 111.765 289.764 111.84 289.444 111.936C289.135 112.032 288.815 112.176 288.484 112.368C288.164 112.56 287.865 112.827 287.588 113.168C287.311 113.509 287.087 113.952 286.916 114.496C286.756 115.029 286.676 115.696 286.676 116.496C286.676 116.667 286.681 116.805 286.692 116.912C286.703 117.008 286.713 117.115 286.724 117.232C286.745 117.339 286.761 117.499 286.772 117.712L286.276 117.296C286.393 116.645 286.633 116.08 286.996 115.6C287.359 115.109 287.812 114.731 288.356 114.464C288.911 114.187 289.524 114.048 290.196 114.048C290.975 114.048 291.668 114.219 292.276 114.56C292.884 114.891 293.359 115.355 293.7 115.952C294.052 116.549 294.228 117.243 294.228 118.032C294.228 118.811 294.047 119.509 293.684 120.128C293.332 120.747 292.831 121.232 292.18 121.584C291.529 121.925 290.767 122.096 289.892 122.096ZM290.02 121.152C290.617 121.152 291.145 121.019 291.604 120.752C292.063 120.475 292.42 120.101 292.676 119.632C292.943 119.163 293.076 118.635 293.076 118.048C293.076 117.472 292.943 116.96 292.676 116.512C292.42 116.064 292.063 115.712 291.604 115.456C291.145 115.189 290.612 115.056 290.004 115.056C289.407 115.056 288.879 115.184 288.42 115.44C287.961 115.685 287.599 116.032 287.332 116.48C287.076 116.928 286.948 117.445 286.948 118.032C286.948 118.619 287.076 119.147 287.332 119.616C287.599 120.085 287.961 120.459 288.42 120.736C288.889 121.013 289.423 121.152 290.02 121.152ZM297.163 122V113.6H298.299V120.272L303.915 113.6H304.923V122H303.787V115.312L298.187 122H297.163ZM313.015 122.08C312.289 122.08 311.633 121.915 311.047 121.584C310.46 121.243 309.991 120.757 309.639 120.128C309.297 119.488 309.127 118.709 309.127 117.792C309.127 116.875 309.297 116.101 309.639 115.472C309.98 114.832 310.444 114.347 311.031 114.016C311.617 113.685 312.279 113.52 313.015 113.52C313.815 113.52 314.529 113.701 315.159 114.064C315.799 114.416 316.3 114.917 316.663 115.568C317.025 116.208 317.207 116.949 317.207 117.792C317.207 118.645 317.025 119.392 316.663 120.032C316.3 120.672 315.799 121.173 315.159 121.536C314.529 121.899 313.815 122.08 313.015 122.08ZM308.679 125.104V113.6H309.767V116.128L309.655 117.808L309.815 119.504V125.104H308.679ZM312.935 121.072C313.532 121.072 314.065 120.939 314.535 120.672C315.004 120.395 315.377 120.011 315.655 119.52C315.932 119.019 316.071 118.443 316.071 117.792C316.071 117.141 315.932 116.571 315.655 116.08C315.377 115.589 315.004 115.205 314.535 114.928C314.065 114.651 313.532 114.512 312.935 114.512C312.337 114.512 311.799 114.651 311.319 114.928C310.849 115.205 310.476 115.589 310.199 116.08C309.932 116.571 309.799 117.141 309.799 117.792C309.799 118.443 309.932 119.019 310.199 119.52C310.476 120.011 310.849 120.395 311.319 120.672C311.799 120.939 312.337 121.072 312.935 121.072ZM325.316 122V120.144L325.268 119.84V116.736C325.268 116.021 325.066 115.472 324.66 115.088C324.266 114.704 323.674 114.512 322.884 114.512C322.34 114.512 321.823 114.603 321.332 114.784C320.842 114.965 320.426 115.205 320.084 115.504L319.572 114.656C319.999 114.293 320.511 114.016 321.108 113.824C321.706 113.621 322.335 113.52 322.996 113.52C324.084 113.52 324.922 113.792 325.508 114.336C326.106 114.869 326.404 115.685 326.404 116.784V122H325.316ZM322.42 122.08C321.791 122.08 321.242 121.979 320.772 121.776C320.314 121.563 319.962 121.275 319.716 120.912C319.471 120.539 319.348 120.112 319.348 119.632C319.348 119.195 319.45 118.8 319.652 118.448C319.866 118.085 320.207 117.797 320.676 117.584C321.156 117.36 321.796 117.248 322.596 117.248H325.492V118.096H322.628C321.818 118.096 321.252 118.24 320.932 118.528C320.623 118.816 320.468 119.173 320.468 119.6C320.468 120.08 320.655 120.464 321.028 120.752C321.402 121.04 321.924 121.184 322.596 121.184C323.236 121.184 323.786 121.04 324.244 120.752C324.714 120.453 325.055 120.027 325.268 119.472L325.524 120.256C325.311 120.811 324.938 121.253 324.404 121.584C323.882 121.915 323.22 122.08 322.42 122.08ZM329.929 122V113.6H331.065V120.272L336.681 113.6H337.689V122H336.553V115.312L330.953 122H329.929ZM333.737 112.384C333.033 112.384 332.462 112.208 332.025 111.856C331.598 111.493 331.374 110.976 331.353 110.304H332.169C332.179 110.731 332.329 111.067 332.617 111.312C332.905 111.557 333.278 111.68 333.737 111.68C334.195 111.68 334.569 111.557 334.857 111.312C335.155 111.067 335.31 110.731 335.321 110.304H336.137C336.126 110.976 335.902 111.493 335.465 111.856C335.027 112.208 334.451 112.384 333.737 112.384ZM340.724 124.336L341.428 121.376L341.556 122.064C341.311 122.064 341.103 121.984 340.932 121.824C340.772 121.664 340.692 121.456 340.692 121.2C340.692 120.944 340.772 120.736 340.932 120.576C341.103 120.416 341.305 120.336 341.54 120.336C341.785 120.336 341.983 120.421 342.132 120.592C342.292 120.763 342.372 120.965 342.372 121.2C342.372 121.285 342.367 121.371 342.356 121.456C342.345 121.541 342.324 121.637 342.292 121.744C342.26 121.851 342.217 121.979 342.164 122.128L341.492 124.336H340.724ZM348.486 121.984L348.566 121.008C348.641 121.019 348.71 121.035 348.774 121.056C348.849 121.067 348.913 121.072 348.966 121.072C349.308 121.072 349.58 120.944 349.782 120.688C349.996 120.432 350.156 120.091 350.262 119.664C350.369 119.237 350.444 118.757 350.486 118.224C350.529 117.68 350.566 117.136 350.598 116.592L350.742 113.6H356.902V122H355.766V114.256L356.054 114.592H351.478L351.75 114.24L351.622 116.672C351.59 117.397 351.532 118.091 351.446 118.752C351.372 119.413 351.249 119.995 351.078 120.496C350.918 120.997 350.694 121.392 350.406 121.68C350.118 121.957 349.75 122.096 349.302 122.096C349.174 122.096 349.041 122.085 348.902 122.064C348.774 122.043 348.636 122.016 348.486 121.984ZM360.632 122V113.6H361.768V117.216H364.328V118.256H361.768V122H360.632ZM367.864 122.08C367.064 122.08 366.344 121.899 365.704 121.536C365.074 121.163 364.578 120.656 364.216 120.016C363.853 119.365 363.672 118.624 363.672 117.792C363.672 116.949 363.853 116.208 364.216 115.568C364.578 114.928 365.074 114.427 365.704 114.064C366.344 113.701 367.064 113.52 367.864 113.52C368.664 113.52 369.378 113.701 370.008 114.064C370.637 114.427 371.133 114.928 371.496 115.568C371.858 116.208 372.04 116.949 372.04 117.792C372.04 118.624 371.858 119.365 371.496 120.016C371.133 120.656 370.637 121.163 370.008 121.536C369.378 121.899 368.664 122.08 367.864 122.08ZM367.864 121.088C368.45 121.088 368.973 120.949 369.432 120.672C369.89 120.395 370.253 120.011 370.52 119.52C370.786 119.019 370.92 118.443 370.92 117.792C370.92 117.131 370.786 116.555 370.52 116.064C370.253 115.573 369.89 115.195 369.432 114.928C368.973 114.651 368.45 114.512 367.864 114.512C367.288 114.512 366.765 114.651 366.296 114.928C365.837 115.195 365.474 115.573 365.208 116.064C364.941 116.555 364.808 117.131 364.808 117.792C364.808 118.443 364.941 119.019 365.208 119.52C365.474 120.011 365.837 120.395 366.296 120.672C366.765 120.949 367.288 121.088 367.864 121.088ZM378.751 122.096C378.069 122.096 377.461 121.984 376.927 121.76C376.405 121.536 375.957 121.195 375.583 120.736C375.21 120.277 374.927 119.712 374.735 119.04C374.543 118.357 374.447 117.568 374.447 116.672C374.447 115.872 374.522 115.173 374.671 114.576C374.821 113.968 375.029 113.445 375.295 113.008C375.562 112.571 375.871 112.203 376.223 111.904C376.586 111.595 376.975 111.349 377.391 111.168C377.818 110.976 378.255 110.832 378.703 110.736L382.479 109.856L382.671 110.912L379.119 111.712C378.895 111.765 378.623 111.84 378.303 111.936C377.994 112.032 377.674 112.176 377.343 112.368C377.023 112.56 376.725 112.827 376.447 113.168C376.17 113.509 375.946 113.952 375.775 114.496C375.615 115.029 375.535 115.696 375.535 116.496C375.535 116.667 375.541 116.805 375.551 116.912C375.562 117.008 375.573 117.115 375.583 117.232C375.605 117.339 375.621 117.499 375.631 117.712L375.135 117.296C375.253 116.645 375.493 116.08 375.855 115.6C376.218 115.109 376.671 114.731 377.215 114.464C377.77 114.187 378.383 114.048 379.055 114.048C379.834 114.048 380.527 114.219 381.135 114.56C381.743 114.891 382.218 115.355 382.559 115.952C382.911 116.549 383.087 117.243 383.087 118.032C383.087 118.811 382.906 119.509 382.543 120.128C382.191 120.747 381.69 121.232 381.039 121.584C380.389 121.925 379.626 122.096 378.751 122.096ZM378.879 121.152C379.477 121.152 380.005 121.019 380.463 120.752C380.922 120.475 381.279 120.101 381.535 119.632C381.802 119.163 381.935 118.635 381.935 118.048C381.935 117.472 381.802 116.96 381.535 116.512C381.279 116.064 380.922 115.712 380.463 115.456C380.005 115.189 379.471 115.056 378.863 115.056C378.266 115.056 377.738 115.184 377.279 115.44C376.821 115.685 376.458 116.032 376.191 116.48C375.935 116.928 375.807 117.445 375.807 118.032C375.807 118.619 375.935 119.147 376.191 119.616C376.458 120.085 376.821 120.459 377.279 120.736C377.749 121.013 378.282 121.152 378.879 121.152ZM386.022 122V113.6H387.158V120.272L392.774 113.6H393.782V122H392.646V115.312L387.046 122H386.022ZM402.225 122V113.6H403.361V120.272L408.977 113.6H409.985V122H408.849V115.312L403.249 122H402.225ZM406.033 112.384C405.329 112.384 404.759 112.208 404.321 111.856C403.895 111.493 403.671 110.976 403.649 110.304H404.465C404.476 110.731 404.625 111.067 404.913 111.312C405.201 111.557 405.575 111.68 406.033 111.68C406.492 111.68 406.865 111.557 407.153 111.312C407.452 111.067 407.607 110.731 407.617 110.304H408.433C408.423 110.976 408.199 111.493 407.761 111.856C407.324 112.208 406.748 112.384 406.033 112.384ZM421.949 122.08C421.117 122.08 420.37 121.899 419.709 121.536C419.058 121.163 418.546 120.656 418.173 120.016C417.799 119.365 417.613 118.624 417.613 117.792C417.613 116.949 417.799 116.208 418.173 115.568C418.546 114.928 419.058 114.427 419.709 114.064C420.37 113.701 421.117 113.52 421.949 113.52C422.663 113.52 423.309 113.659 423.885 113.936C424.461 114.213 424.914 114.629 425.245 115.184L424.397 115.76C424.109 115.333 423.751 115.019 423.325 114.816C422.898 114.613 422.434 114.512 421.933 114.512C421.335 114.512 420.797 114.651 420.317 114.928C419.837 115.195 419.458 115.573 419.181 116.064C418.903 116.555 418.765 117.131 418.765 117.792C418.765 118.453 418.903 119.029 419.181 119.52C419.458 120.011 419.837 120.395 420.317 120.672C420.797 120.939 421.335 121.072 421.933 121.072C422.434 121.072 422.898 120.971 423.325 120.768C423.751 120.565 424.109 120.256 424.397 119.84L425.245 120.416C424.914 120.96 424.461 121.376 423.885 121.664C423.309 121.941 422.663 122.08 421.949 122.08ZM429.388 122V114.288L429.676 114.592H426.204V113.6H433.708V114.592H430.236L430.524 114.288V122H429.388ZM441.066 122V120.144L441.018 119.84V116.736C441.018 116.021 440.816 115.472 440.41 115.088C440.016 114.704 439.424 114.512 438.634 114.512C438.09 114.512 437.573 114.603 437.082 114.784C436.592 114.965 436.176 115.205 435.834 115.504L435.322 114.656C435.749 114.293 436.261 114.016 436.858 113.824C437.456 113.621 438.085 113.52 438.746 113.52C439.834 113.52 440.672 113.792 441.258 114.336C441.856 114.869 442.154 115.685 442.154 116.784V122H441.066ZM438.17 122.08C437.541 122.08 436.992 121.979 436.522 121.776C436.064 121.563 435.712 121.275 435.466 120.912C435.221 120.539 435.098 120.112 435.098 119.632C435.098 119.195 435.2 118.8 435.402 118.448C435.616 118.085 435.957 117.797 436.426 117.584C436.906 117.36 437.546 117.248 438.346 117.248H441.242V118.096H438.378C437.568 118.096 437.002 118.24 436.682 118.528C436.373 118.816 436.218 119.173 436.218 119.6C436.218 120.08 436.405 120.464 436.778 120.752C437.152 121.04 437.674 121.184 438.346 121.184C438.986 121.184 439.536 121.04 439.994 120.752C440.464 120.453 440.805 120.027 441.018 119.472L441.274 120.256C441.061 120.811 440.688 121.253 440.154 121.584C439.632 121.915 438.97 122.08 438.17 122.08ZM445.679 122V113.6H449.391C450.34 113.6 451.087 113.781 451.631 114.144C452.185 114.507 452.463 115.04 452.463 115.744C452.463 116.427 452.201 116.955 451.679 117.328C451.156 117.691 450.468 117.872 449.615 117.872L449.839 117.536C450.841 117.536 451.577 117.723 452.047 118.096C452.516 118.469 452.751 119.008 452.751 119.712C452.751 120.437 452.484 121.003 451.951 121.408C451.428 121.803 450.612 122 449.503 122H445.679ZM446.783 121.104H449.455C450.169 121.104 450.708 120.992 451.071 120.768C451.444 120.533 451.631 120.16 451.631 119.648C451.631 119.136 451.465 118.763 451.135 118.528C450.804 118.293 450.281 118.176 449.567 118.176H446.783V121.104ZM446.783 117.328H449.311C449.961 117.328 450.457 117.205 450.799 116.96C451.151 116.715 451.327 116.357 451.327 115.888C451.327 115.419 451.151 115.067 450.799 114.832C450.457 114.597 449.961 114.48 449.311 114.48H446.783V117.328ZM461.129 122V120.144L461.081 119.84V116.736C461.081 116.021 460.878 115.472 460.473 115.088C460.078 114.704 459.486 114.512 458.697 114.512C458.153 114.512 457.636 114.603 457.145 114.784C456.654 114.965 456.238 115.205 455.897 115.504L455.385 114.656C455.812 114.293 456.324 114.016 456.921 113.824C457.518 113.621 458.148 113.52 458.809 113.52C459.897 113.52 460.734 113.792 461.321 114.336C461.918 114.869 462.217 115.685 462.217 116.784V122H461.129ZM458.233 122.08C457.604 122.08 457.054 121.979 456.585 121.776C456.126 121.563 455.774 121.275 455.529 120.912C455.284 120.539 455.161 120.112 455.161 119.632C455.161 119.195 455.262 118.8 455.465 118.448C455.678 118.085 456.02 117.797 456.489 117.584C456.969 117.36 457.609 117.248 458.409 117.248H461.305V118.096H458.441C457.63 118.096 457.065 118.24 456.745 118.528C456.436 118.816 456.281 119.173 456.281 119.6C456.281 120.08 456.468 120.464 456.841 120.752C457.214 121.04 457.737 121.184 458.409 121.184C459.049 121.184 459.598 121.04 460.057 120.752C460.526 120.453 460.868 120.027 461.081 119.472L461.337 120.256C461.124 120.811 460.75 121.253 460.217 121.584C459.694 121.915 459.033 122.08 458.233 122.08ZM465.741 122V113.6H466.877V120.272L472.493 113.6H473.501V122H472.365V115.312L466.765 122H465.741ZM469.549 112.384C468.845 112.384 468.274 112.208 467.837 111.856C467.41 111.493 467.186 110.976 467.165 110.304H467.981C467.992 110.731 468.141 111.067 468.429 111.312C468.717 111.557 469.09 111.68 469.549 111.68C470.008 111.68 470.381 111.557 470.669 111.312C470.968 111.067 471.122 110.731 471.133 110.304H471.949C471.938 110.976 471.714 111.493 471.277 111.856C470.84 112.208 470.264 112.384 469.549 112.384ZM487.464 121.008L487.208 121.312V113.6H488.344V121.312L488.04 121.008H492.728L492.424 121.312V113.6H493.56V122H481.944V113.6H483.08V121.312L482.792 121.008H487.464ZM493.784 123.84V121.696L494.072 122H492.36V121.008H494.856V123.84H493.784ZM502.504 122V120.144L502.456 119.84V116.736C502.456 116.021 502.253 115.472 501.848 115.088C501.453 114.704 500.861 114.512 500.072 114.512C499.528 114.512 499.011 114.603 498.52 114.784C498.029 114.965 497.613 115.205 497.272 115.504L496.76 114.656C497.187 114.293 497.699 114.016 498.296 113.824C498.893 113.621 499.523 113.52 500.184 113.52C501.272 113.52 502.109 113.792 502.696 114.336C503.293 114.869 503.592 115.685 503.592 116.784V122H502.504ZM499.608 122.08C498.979 122.08 498.429 121.979 497.96 121.776C497.501 121.563 497.149 121.275 496.904 120.912C496.659 120.539 496.536 120.112 496.536 119.632C496.536 119.195 496.637 118.8 496.84 118.448C497.053 118.085 497.395 117.797 497.864 117.584C498.344 117.36 498.984 117.248 499.784 117.248H502.68V118.096H499.816C499.005 118.096 498.44 118.24 498.12 118.528C497.811 118.816 497.656 119.173 497.656 119.6C497.656 120.08 497.843 120.464 498.216 120.752C498.589 121.04 499.112 121.184 499.784 121.184C500.424 121.184 500.973 121.04 501.432 120.752C501.901 120.453 502.243 120.027 502.456 119.472L502.712 120.256C502.499 120.811 502.125 121.253 501.592 121.584C501.069 121.915 500.408 122.08 499.608 122.08ZM510.636 122.08C509.804 122.08 509.057 121.899 508.396 121.536C507.745 121.163 507.233 120.656 506.86 120.016C506.487 119.365 506.3 118.624 506.3 117.792C506.3 116.949 506.487 116.208 506.86 115.568C507.233 114.928 507.745 114.427 508.396 114.064C509.057 113.701 509.804 113.52 510.636 113.52C511.351 113.52 511.996 113.659 512.572 113.936C513.148 114.213 513.601 114.629 513.932 115.184L513.084 115.76C512.796 115.333 512.439 115.019 512.012 114.816C511.585 114.613 511.121 114.512 510.62 114.512C510.023 114.512 509.484 114.651 509.004 114.928C508.524 115.195 508.145 115.573 507.868 116.064C507.591 116.555 507.452 117.131 507.452 117.792C507.452 118.453 507.591 119.029 507.868 119.52C508.145 120.011 508.524 120.395 509.004 120.672C509.484 120.939 510.023 121.072 510.62 121.072C511.121 121.072 511.585 120.971 512.012 120.768C512.439 120.565 512.796 120.256 513.084 119.84L513.932 120.416C513.601 120.96 513.148 121.376 512.572 121.664C511.996 121.941 511.351 122.08 510.636 122.08ZM514.799 121.984L514.879 121.008C514.953 121.019 515.023 121.035 515.087 121.056C515.161 121.067 515.225 121.072 515.279 121.072C515.62 121.072 515.892 120.944 516.095 120.688C516.308 120.432 516.468 120.091 516.575 119.664C516.681 119.237 516.756 118.757 516.799 118.224C516.841 117.68 516.879 117.136 516.911 116.592L517.055 113.6H523.215V122H522.079V114.256L522.367 114.592H517.791L518.063 114.24L517.935 116.672C517.903 117.397 517.844 118.091 517.759 118.752C517.684 119.413 517.561 119.995 517.391 120.496C517.231 120.997 517.007 121.392 516.719 121.68C516.431 121.957 516.063 122.096 515.615 122.096C515.487 122.096 515.353 122.085 515.215 122.064C515.087 122.043 514.948 122.016 514.799 121.984ZM526.944 122V113.6H528.08V120.272L533.696 113.6H534.704V122H533.568V115.312L527.968 122H526.944ZM538.46 122V113.6H542.172C543.121 113.6 543.868 113.781 544.412 114.144C544.966 114.507 545.244 115.04 545.244 115.744C545.244 116.427 544.982 116.955 544.46 117.328C543.937 117.691 543.249 117.872 542.396 117.872L542.62 117.536C543.622 117.536 544.358 117.723 544.828 118.096C545.297 118.469 545.532 119.008 545.532 119.712C545.532 120.437 545.265 121.003 544.732 121.408C544.209 121.803 543.393 122 542.284 122H538.46ZM539.564 121.104H542.236C542.95 121.104 543.489 120.992 543.852 120.768C544.225 120.533 544.412 120.16 544.412 119.648C544.412 119.136 544.246 118.763 543.916 118.528C543.585 118.293 543.062 118.176 542.348 118.176H539.564V121.104ZM539.564 117.328H542.092C542.742 117.328 543.238 117.205 543.58 116.96C543.932 116.715 544.108 116.357 544.108 115.888C544.108 115.419 543.932 115.067 543.58 114.832C543.238 114.597 542.742 114.48 542.092 114.48H539.564V117.328ZM548.694 122V113.6H549.83V122H548.694ZM549.27 111.744C549.035 111.744 548.838 111.664 548.678 111.504C548.518 111.344 548.438 111.152 548.438 110.928C548.438 110.704 548.518 110.517 548.678 110.368C548.838 110.208 549.035 110.128 549.27 110.128C549.505 110.128 549.702 110.203 549.862 110.352C550.022 110.501 550.102 110.688 550.102 110.912C550.102 111.147 550.022 111.344 549.862 111.504C549.713 111.664 549.515 111.744 549.27 111.744ZM559.089 121.008L558.833 121.312V113.6H559.969V121.312L559.665 121.008H564.353L564.049 121.312V113.6H565.185V122H553.569V113.6H554.705V121.312L554.417 121.008H559.089ZM568.913 122V113.6H570.049V120.272L575.665 113.6H576.673V122H575.537V115.312L569.937 122H568.913ZM580.429 122V113.6H581.581L585.389 120.048H584.909L588.781 113.6H589.837V122H588.797V114.896L589.005 114.992L585.389 120.976H584.877L581.229 114.928L581.469 114.88V122H580.429ZM593.649 122.08C593.414 122.08 593.212 121.995 593.041 121.824C592.881 121.653 592.801 121.445 592.801 121.2C592.801 120.944 592.881 120.736 593.041 120.576C593.212 120.416 593.414 120.336 593.649 120.336C593.884 120.336 594.081 120.416 594.241 120.576C594.412 120.736 594.497 120.944 594.497 121.2C594.497 121.445 594.412 121.653 594.241 121.824C594.081 121.995 593.884 122.08 593.649 122.08Z" fill="white"/>
<path d="M1085.78 82.096C1084.94 82.096 1084.16 81.9573 1083.45 81.68C1082.73 81.392 1082.11 80.992 1081.59 80.48C1081.07 79.968 1080.66 79.3653 1080.36 78.672C1080.07 77.9787 1079.93 77.2213 1079.93 76.4C1079.93 75.5787 1080.07 74.8213 1080.36 74.128C1080.66 73.4347 1081.07 72.832 1081.59 72.32C1082.13 71.808 1082.75 71.4133 1083.46 71.136C1084.18 70.848 1084.96 70.704 1085.8 70.704C1086.61 70.704 1087.37 70.8427 1088.09 71.12C1088.8 71.3867 1089.41 71.792 1089.9 72.336L1089.14 73.088C1088.69 72.6187 1088.18 72.2827 1087.62 72.08C1087.07 71.8667 1086.47 71.76 1085.83 71.76C1085.16 71.76 1084.54 71.8773 1083.96 72.112C1083.38 72.336 1082.88 72.6613 1082.46 73.088C1082.03 73.504 1081.69 73.9947 1081.45 74.56C1081.21 75.1147 1081.1 75.728 1081.1 76.4C1081.1 77.072 1081.21 77.6907 1081.45 78.256C1081.69 78.8107 1082.03 79.3013 1082.46 79.728C1082.88 80.144 1083.38 80.4693 1083.96 80.704C1084.54 80.928 1085.16 81.04 1085.83 81.04C1086.47 81.04 1087.07 80.9333 1087.62 80.72C1088.18 80.5067 1088.69 80.1653 1089.14 79.696L1089.9 80.448C1089.41 80.992 1088.8 81.4027 1088.09 81.68C1087.37 81.9573 1086.61 82.096 1085.78 82.096ZM1095.65 82.08C1094.84 82.08 1094.11 81.8987 1093.46 81.536C1092.82 81.1627 1092.31 80.656 1091.94 80.016C1091.56 79.3653 1091.38 78.624 1091.38 77.792C1091.38 76.9493 1091.56 76.208 1091.94 75.568C1092.31 74.928 1092.82 74.4267 1093.46 74.064C1094.1 73.7013 1094.83 73.52 1095.65 73.52C1096.48 73.52 1097.22 73.7013 1097.86 74.064C1098.51 74.4267 1099.02 74.928 1099.38 75.568C1099.75 76.208 1099.94 76.9493 1099.94 77.792C1099.94 78.624 1099.75 79.3653 1099.38 80.016C1099.02 80.656 1098.51 81.1627 1097.86 81.536C1097.21 81.8987 1096.47 82.08 1095.65 82.08ZM1095.65 81.072C1096.26 81.072 1096.8 80.9387 1097.27 80.672C1097.74 80.3947 1098.1 80.0107 1098.37 79.52C1098.65 79.0187 1098.79 78.4427 1098.79 77.792C1098.79 77.1307 1098.65 76.5547 1098.37 76.064C1098.1 75.5733 1097.74 75.1947 1097.27 74.928C1096.8 74.6507 1096.26 74.512 1095.67 74.512C1095.07 74.512 1094.54 74.6507 1094.07 74.928C1093.6 75.1947 1093.22 75.5733 1092.95 76.064C1092.67 76.5547 1092.53 77.1307 1092.53 77.792C1092.53 78.4427 1092.67 79.0187 1092.95 79.52C1093.22 80.0107 1093.6 80.3947 1094.07 80.672C1094.54 80.9387 1095.06 81.072 1095.65 81.072ZM1102.87 82V73.6H1104V81.008H1109.14V73.6H1110.27V82H1102.87ZM1110.56 84.032V81.904L1110.85 82H1109.14V81.008H1111.63V84.032H1110.56ZM1114.3 82V73.6H1115.46L1119.26 80.048H1118.78L1122.66 73.6H1123.71V82H1122.67V74.896L1122.88 74.992L1119.26 80.976H1118.75L1115.1 74.928L1115.34 74.88V82H1114.3ZM1131.04 82.08C1130.17 82.08 1129.4 81.8987 1128.74 81.536C1128.08 81.1627 1127.56 80.656 1127.19 80.016C1126.81 79.3653 1126.63 78.624 1126.63 77.792C1126.63 76.96 1126.8 76.224 1127.16 75.584C1127.52 74.944 1128.01 74.4427 1128.63 74.08C1129.26 73.7067 1129.96 73.52 1130.74 73.52C1131.53 73.52 1132.23 73.7013 1132.84 74.064C1133.45 74.416 1133.94 74.9173 1134.29 75.568C1134.64 76.208 1134.82 76.9493 1134.82 77.792C1134.82 77.8453 1134.81 77.904 1134.8 77.968C1134.8 78.0213 1134.8 78.08 1134.8 78.144H1127.49V77.296H1134.2L1133.75 77.632C1133.75 77.024 1133.61 76.4853 1133.35 76.016C1133.09 75.536 1132.74 75.1627 1132.29 74.896C1131.84 74.6293 1131.33 74.496 1130.74 74.496C1130.16 74.496 1129.65 74.6293 1129.19 74.896C1128.73 75.1627 1128.37 75.536 1128.12 76.016C1127.86 76.496 1127.73 77.0453 1127.73 77.664V77.84C1127.73 78.48 1127.87 79.0453 1128.15 79.536C1128.44 80.016 1128.83 80.3947 1129.33 80.672C1129.84 80.9387 1130.43 81.072 1131.08 81.072C1131.59 81.072 1132.06 80.9813 1132.5 80.8C1132.95 80.6187 1133.33 80.3413 1133.65 79.968L1134.29 80.704C1133.92 81.152 1133.45 81.4933 1132.88 81.728C1132.33 81.9627 1131.72 82.08 1131.04 82.08ZM1142.17 82.08C1141.45 82.08 1140.79 81.9147 1140.2 81.584C1139.62 81.2427 1139.15 80.7573 1138.79 80.128C1138.45 79.488 1138.28 78.7093 1138.28 77.792C1138.28 76.8747 1138.45 76.1013 1138.79 75.472C1139.14 74.832 1139.6 74.3467 1140.19 74.016C1140.77 73.6853 1141.43 73.52 1142.17 73.52C1142.97 73.52 1143.69 73.7013 1144.31 74.064C1144.95 74.416 1145.46 74.9173 1145.82 75.568C1146.18 76.208 1146.36 76.9493 1146.36 77.792C1146.36 78.6453 1146.18 79.392 1145.82 80.032C1145.46 80.672 1144.95 81.1733 1144.31 81.536C1143.69 81.8987 1142.97 82.08 1142.17 82.08ZM1137.83 85.104V73.6H1138.92V76.128L1138.81 77.808L1138.97 79.504V85.104H1137.83ZM1142.09 81.072C1142.69 81.072 1143.22 80.9387 1143.69 80.672C1144.16 80.3947 1144.53 80.0107 1144.81 79.52C1145.09 79.0187 1145.23 78.4427 1145.23 77.792C1145.23 77.1413 1145.09 76.5707 1144.81 76.08C1144.53 75.5893 1144.16 75.2053 1143.69 74.928C1143.22 74.6507 1142.69 74.512 1142.09 74.512C1141.49 74.512 1140.95 74.6507 1140.47 74.928C1140.01 75.2053 1139.63 75.5893 1139.35 76.08C1139.09 76.5707 1138.95 77.1413 1138.95 77.792C1138.95 78.4427 1139.09 79.0187 1139.35 79.52C1139.63 80.0107 1140.01 80.3947 1140.47 80.672C1140.95 80.9387 1141.49 81.072 1142.09 81.072ZM1152.9 82.08C1152.03 82.08 1151.26 81.8987 1150.6 81.536C1149.94 81.1627 1149.42 80.656 1149.05 80.016C1148.67 79.3653 1148.49 78.624 1148.49 77.792C1148.49 76.96 1148.66 76.224 1149.02 75.584C1149.38 74.944 1149.87 74.4427 1150.49 74.08C1151.12 73.7067 1151.82 73.52 1152.6 73.52C1153.39 73.52 1154.09 73.7013 1154.7 74.064C1155.31 74.416 1155.8 74.9173 1156.15 75.568C1156.5 76.208 1156.68 76.9493 1156.68 77.792C1156.68 77.8453 1156.67 77.904 1156.66 77.968C1156.66 78.0213 1156.66 78.08 1156.66 78.144H1149.35V77.296H1156.06L1155.61 77.632C1155.61 77.024 1155.47 76.4853 1155.21 76.016C1154.95 75.536 1154.6 75.1627 1154.15 74.896C1153.7 74.6293 1153.19 74.496 1152.6 74.496C1152.02 74.496 1151.51 74.6293 1151.05 74.896C1150.59 75.1627 1150.23 75.536 1149.98 76.016C1149.72 76.496 1149.59 77.0453 1149.59 77.664V77.84C1149.59 78.48 1149.73 79.0453 1150.01 79.536C1150.3 80.016 1150.69 80.3947 1151.19 80.672C1151.7 80.9387 1152.28 81.072 1152.94 81.072C1153.45 81.072 1153.92 80.9813 1154.36 80.8C1154.81 80.6187 1155.19 80.3413 1155.51 79.968L1156.15 80.704C1155.78 81.152 1155.31 81.4933 1154.74 81.728C1154.19 81.9627 1153.58 82.08 1152.9 82.08ZM1169.43 82L1166.55 77.84L1167.49 77.28L1170.79 82H1169.43ZM1164.66 78.256V77.28H1167.32V78.256H1164.66ZM1167.6 77.92L1166.52 77.76L1169.32 73.6H1170.55L1167.6 77.92ZM1159.48 82H1158.12L1161.41 77.28L1162.34 77.84L1159.48 82ZM1165.01 82H1163.88V73.6H1165.01V82ZM1164.23 78.256H1161.59V77.28H1164.23V78.256ZM1161.32 77.92L1158.36 73.6H1159.59L1162.37 77.76L1161.32 77.92ZM1173.18 82V73.6H1174.31V82H1173.18ZM1173.75 71.744C1173.52 71.744 1173.32 71.664 1173.16 71.504C1173 71.344 1172.92 71.152 1172.92 70.928C1172.92 70.704 1173 70.5173 1173.16 70.368C1173.32 70.208 1173.52 70.128 1173.75 70.128C1173.99 70.128 1174.19 70.2027 1174.35 70.352C1174.51 70.5013 1174.59 70.688 1174.59 70.912C1174.59 71.1467 1174.51 71.344 1174.35 71.504C1174.2 71.664 1174 71.744 1173.75 71.744Z" fill="white"/>
<path d="M1024.69 97.334C1025.17 97.3321 1025.66 97.337 1026.14 97.3486L1026.27 97.3533C1026.42 97.3586 1026.57 97.3653 1026.75 97.3733C1027.46 97.4066 1027.94 97.5186 1028.37 97.6833C1028.81 97.8526 1029.18 98.082 1029.55 98.4526C1029.89 98.7857 1030.15 99.1886 1030.32 99.6333C1030.48 100.058 1030.59 100.543 1030.63 101.252C1030.63 101.429 1030.64 101.577 1030.65 101.727L1030.65 101.856C1030.66 102.342 1030.67 102.828 1030.67 103.315L1030.67 103.812V104.685C1030.67 105.172 1030.66 105.658 1030.65 106.145L1030.65 106.274C1030.64 106.423 1030.64 106.571 1030.63 106.749C1030.59 107.458 1030.48 107.942 1030.32 108.367C1030.15 108.812 1029.89 109.215 1029.55 109.548C1029.21 109.887 1028.81 110.149 1028.37 110.317C1027.94 110.481 1027.46 110.593 1026.75 110.627C1026.57 110.635 1026.42 110.641 1026.27 110.647L1026.14 110.651C1025.66 110.662 1025.17 110.668 1024.69 110.666L1024.19 110.667H1023.32C1022.83 110.668 1022.34 110.663 1021.86 110.651L1021.73 110.647C1021.57 110.642 1021.41 110.635 1021.25 110.627C1020.54 110.594 1020.06 110.481 1019.63 110.317C1019.19 110.15 1018.79 109.887 1018.45 109.548C1018.11 109.215 1017.85 108.812 1017.68 108.367C1017.52 107.942 1017.41 107.458 1017.37 106.749C1017.37 106.59 1017.36 106.432 1017.35 106.274L1017.35 106.145C1017.34 105.658 1017.33 105.172 1017.33 104.685V103.315C1017.33 102.828 1017.34 102.342 1017.35 101.856L1017.35 101.727C1017.36 101.577 1017.36 101.429 1017.37 101.252C1017.41 100.542 1017.52 100.059 1017.68 99.6333C1017.85 99.1884 1018.11 98.7856 1018.45 98.4533C1018.79 98.1138 1019.19 97.851 1019.63 97.6833C1020.06 97.5186 1020.54 97.4066 1021.25 97.3733L1021.73 97.3533L1021.86 97.35C1022.34 97.3377 1022.83 97.3321 1023.31 97.3333L1024.69 97.334ZM1024 100.667C1023.56 100.661 1023.12 100.743 1022.71 100.907C1022.3 101.072 1021.93 101.317 1021.61 101.627C1021.3 101.937 1021.05 102.306 1020.88 102.714C1020.71 103.121 1020.62 103.559 1020.62 104C1020.62 104.442 1020.71 104.879 1020.88 105.287C1021.05 105.694 1021.3 106.064 1021.61 106.374C1021.93 106.684 1022.3 106.929 1022.71 107.093C1023.12 107.258 1023.56 107.34 1024 107.333C1024.88 107.333 1025.73 106.982 1026.36 106.357C1026.98 105.732 1027.33 104.884 1027.33 104C1027.33 103.116 1026.98 102.268 1026.36 101.643C1025.73 101.018 1024.88 100.667 1024 100.667ZM1024 102.001C1024.27 101.996 1024.53 102.044 1024.78 102.142C1025.02 102.24 1025.25 102.387 1025.44 102.573C1025.63 102.759 1025.78 102.981 1025.88 103.226C1025.98 103.471 1026.04 103.734 1026.04 104C1026.04 104.266 1025.98 104.529 1025.88 104.774C1025.78 105.019 1025.63 105.241 1025.44 105.427C1025.25 105.613 1025.02 105.76 1024.78 105.858C1024.53 105.957 1024.27 106.005 1024 106C1023.47 106 1022.96 105.789 1022.59 105.414C1022.21 105.039 1022 104.53 1022 104C1022 103.47 1022.21 102.961 1022.59 102.586C1022.96 102.211 1023.47 102 1024 102L1024 102.001ZM1027.5 99.6673C1027.28 99.6759 1027.08 99.7674 1026.93 99.9226C1026.78 100.078 1026.7 100.285 1026.7 100.5C1026.7 100.715 1026.78 100.922 1026.93 101.077C1027.08 101.233 1027.28 101.324 1027.5 101.333C1027.72 101.333 1027.93 101.245 1028.09 101.089C1028.25 100.932 1028.33 100.72 1028.33 100.499C1028.33 100.278 1028.25 100.066 1028.09 99.91C1027.93 99.7537 1027.72 99.666 1027.5 99.666V99.6673Z" fill="white"/>
<g clip-path="url(#clip0_177_648)">
<path d="M1074.66 98.6567H1076.13V96.1127C1075.87 96.078 1075.01 96 1074 96C1071.89 96 1070.45 97.3247 1070.45 99.7593V102H1068.12V104.844H1070.45V112H1073.3V104.845H1075.53L1075.88 102.001H1073.3V100.041C1073.3 99.2193 1073.52 98.6567 1074.66 98.6567Z" fill="white"/>
</g>
<path d="M1120.16 98.6666C1120.52 98.6686 1121.41 98.6773 1122.36 98.7153L1122.69 98.73C1123.64 98.7746 1124.6 98.852 1125.07 98.9833C1125.7 99.1606 1126.19 99.6766 1126.36 100.331C1126.63 101.371 1126.66 103.399 1126.67 103.891L1126.67 103.992V104.108C1126.66 104.599 1126.63 106.628 1126.36 107.667C1126.19 108.324 1125.7 108.841 1125.07 109.015C1124.6 109.147 1123.64 109.224 1122.69 109.269L1122.36 109.284C1121.41 109.321 1120.52 109.331 1120.16 109.332L1120.01 109.333H1119.84C1119.08 109.328 1115.93 109.294 1114.93 109.015C1114.3 108.838 1113.8 108.322 1113.64 107.667C1113.37 106.627 1113.34 104.599 1113.33 104.108V103.891C1113.34 103.399 1113.37 101.371 1113.64 100.331C1113.81 99.6746 1114.3 99.158 1114.93 98.984C1115.93 98.7046 1119.08 98.6706 1119.84 98.6666H1120.16ZM1118.67 101.667V106.333L1122.67 104L1118.67 101.667Z" fill="white"/>
<path d="M1170.67 101.497V106.333C1170.67 107.233 1170.39 108.111 1169.86 108.844C1169.34 109.578 1168.61 110.131 1167.76 110.426C1166.9 110.721 1165.98 110.744 1165.12 110.492C1164.26 110.24 1163.49 109.726 1162.93 109.019C1162.38 108.313 1162.05 107.451 1162.01 106.552C1161.96 105.653 1162.2 104.762 1162.68 104.003C1163.16 103.244 1163.87 102.655 1164.7 102.317C1165.54 101.978 1166.46 101.908 1167.33 102.116V104.225C1166.88 104.008 1166.36 103.946 1165.87 104.047C1165.37 104.148 1164.92 104.407 1164.59 104.786C1164.25 105.164 1164.05 105.641 1164.01 106.145C1163.97 106.649 1164.09 107.153 1164.36 107.58C1164.63 108.007 1165.03 108.335 1165.51 108.515C1165.98 108.694 1166.5 108.715 1166.98 108.574C1167.47 108.434 1167.89 108.139 1168.2 107.735C1168.5 107.331 1168.67 106.839 1168.67 106.333V97.3334H1170.67C1170.67 98.2174 1171.02 99.0653 1171.64 99.6904C1172.27 100.316 1173.12 100.667 1174 100.667V102.667C1172.79 102.669 1171.61 102.256 1170.67 101.497Z" fill="white"/>
<defs>
<clipPath id="clip0_177_648">
<rect width="16" height="16" fill="white" transform="translate(1064 96)"/>
</clipPath>
</defs>
</svg>
